<svg width="331" height="150" viewBox="0 0 331 150" fill="none" xmlns="http://www.w3.org/2000/svg">
<path d="M179.347 88.558L179.296 70.3285L170.369 85.3336H167.199L158.323 70.7347V88.558H151.729V58.1924H157.537L168.873 77.0566L180.057 58.1924H185.813L185.89 88.5326L179.347 88.558Z" fill="black"/>
<path d="M204.479 87.0346C201.943 85.689 199.964 83.8102 198.544 81.4236C197.124 79.037 196.389 76.3711 196.389 73.3752C196.389 70.4046 197.099 67.7133 198.544 65.3267C199.964 62.9402 201.943 61.0613 204.479 59.7157C207.015 58.3701 209.83 57.6846 213 57.6846C216.17 57.6846 218.985 58.3701 221.495 59.7157C224.006 61.0867 225.984 62.9402 227.429 65.3267C228.875 67.7133 229.585 70.4046 229.585 73.3752C229.585 76.3457 228.875 79.037 227.429 81.4236C225.984 83.8102 224.006 85.689 221.495 87.0346C218.985 88.4056 216.144 89.0657 213 89.0657C209.855 89.0657 206.989 88.3802 204.479 87.0346ZM217.843 81.8552C219.289 81.0427 220.43 79.8748 221.242 78.4022C222.053 76.9297 222.484 75.254 222.484 73.3752C222.484 71.4964 222.078 69.8207 221.242 68.3481C220.43 66.8755 219.289 65.733 217.843 64.8951C216.398 64.0827 214.775 63.6511 213 63.6511C211.199 63.6511 209.601 64.0573 208.156 64.8951C206.71 65.733 205.569 66.8755 204.758 68.3481C203.946 69.8207 203.515 71.4964 203.515 73.3752C203.515 75.254 203.921 76.9297 204.758 78.4022C205.569 79.8748 206.71 81.0173 208.156 81.8552C209.601 82.6676 211.224 83.0993 213 83.0993C214.775 83.0739 216.398 82.6676 217.843 81.8552Z" fill="black"/>
<path d="M243.051 88.101C240.82 87.4408 239.019 86.603 237.65 85.562L240.033 80.281C241.327 81.2458 242.874 82.0075 244.674 82.5661C246.475 83.15 248.25 83.4293 250.051 83.4293C252.054 83.4293 253.525 83.1246 254.463 82.5407C255.427 81.9567 255.883 81.1697 255.883 80.1795C255.883 79.4686 255.604 78.8592 255.047 78.3769C254.489 77.8945 253.753 77.5136 252.891 77.2343C252.003 76.9551 250.811 76.625 249.315 76.2695C247.007 75.711 245.105 75.1778 243.634 74.6192C242.164 74.0607 240.896 73.1974 239.856 71.9787C238.791 70.7601 238.284 69.1351 238.284 67.1294C238.284 65.3775 238.765 63.778 239.704 62.3308C240.667 60.909 242.088 59.7665 244.015 58.9286C245.942 58.0908 248.275 57.6592 251.04 57.6592C252.967 57.6592 254.869 57.8877 256.72 58.3447C258.572 58.8017 260.195 59.4618 261.564 60.3504L259.408 65.6822C256.619 64.0827 253.804 63.2956 251.014 63.2956C249.062 63.2956 247.591 63.6257 246.652 64.2604C245.714 64.8951 245.258 65.733 245.258 66.7739C245.258 67.8149 245.79 68.5766 246.881 69.0844C247.971 69.5922 249.619 70.0999 251.851 70.5823C254.159 71.1409 256.061 71.6741 257.532 72.2326C259.003 72.7912 260.271 73.6544 261.31 74.8223C262.376 76.0156 262.883 77.6152 262.883 79.6463C262.883 81.3728 262.401 82.9723 261.437 84.3941C260.474 85.8159 259.028 86.9584 257.075 87.7963C255.148 88.6341 252.789 89.0657 250.025 89.0657C247.616 89.0657 245.283 88.7357 243.051 88.101Z" fill="black"/>
<path d="M272.875 58.1924H279.899V88.5326H272.875V58.1924Z" fill="black"/>
<path d="M312.386 59.538C314.364 60.4266 315.885 61.6961 316.951 63.3464C318.016 64.9967 318.548 66.9517 318.548 69.2113C318.548 71.4456 318.016 73.3752 316.951 75.0509C315.885 76.7012 314.364 77.996 312.386 78.8593C310.408 79.7479 308.074 80.1795 305.386 80.1795H299.275V88.558H292.25V58.1924H305.361C308.075 58.1924 310.408 58.6494 312.386 59.538ZM309.799 73.0959C310.889 72.1819 311.447 70.887 311.447 69.2113C311.447 67.5103 310.889 66.19 309.799 65.276C308.709 64.362 307.111 63.905 304.981 63.905H299.275V74.4415H304.981C307.111 74.4669 308.709 74.0099 309.799 73.0959Z" fill="black"/>
<path d="M103.647 26.9381C103.266 28.2837 102.632 29.5786 101.719 30.6703C99.792 32.9807 96.9263 34.2502 94.0606 35.215C93.7309 35.3166 93.3759 35.4435 93.1223 35.6974C92.7672 36.0782 92.7165 36.6622 92.6912 37.1954C92.5644 38.9472 92.0318 40.6991 90.9413 42.0955C89.8508 43.4665 88.1517 44.4059 86.4019 44.3044C85.6157 44.2536 84.8295 43.9997 84.0687 43.7712C78.7177 42.1717 73.1385 41.5369 67.5847 41.0799C64.2371 40.8006 60.7882 40.5721 57.6942 39.2265C54.9046 38.0332 51.4049 35.1642 51.6585 31.8128C51.9375 27.8775 51.5317 23.7898 52.7997 19.956C53.1548 18.9151 53.6113 17.9503 54.1438 17.0109C28.6316 23.4344 9.68756 46.564 9.68756 74.1114C9.68756 106.61 36.0113 132.964 68.4723 132.964C100.933 132.964 127.257 106.61 127.257 74.1114C127.282 54.8155 117.975 37.6778 103.647 26.9381ZM68.4976 104.325C51.836 104.325 38.3191 90.7922 38.3191 74.1114C38.3191 57.4306 51.836 43.8981 68.4976 43.8981C85.1592 43.8981 98.6761 57.4306 98.6761 74.1114C98.6508 90.7922 85.1592 104.325 68.4976 104.325Z" fill="#FEC401"/>
<mask id="mask0_1_176" style="mask-type:luminance" maskUnits="userSpaceOnUse" x="9" y="17" width="119" height="116">
<path d="M103.647 26.9381C103.266 28.2837 102.632 29.5786 101.719 30.6703C99.792 32.9807 96.9263 34.2502 94.0606 35.215C93.7309 35.3166 93.3759 35.4435 93.1223 35.6974C92.7672 36.0782 92.7165 36.6622 92.6912 37.1954C92.5644 38.9472 92.0318 40.6991 90.9413 42.0955C89.8508 43.4665 88.1517 44.4059 86.4019 44.3044C85.6157 44.2536 84.8295 43.9997 84.0687 43.7712C78.7177 42.1717 73.1385 41.5369 67.5847 41.0799C64.2371 40.8006 60.7882 40.5721 57.6942 39.2265C54.9046 38.0332 51.4049 35.1642 51.6585 31.8128C51.9375 27.8775 51.5317 23.7898 52.7997 19.956C53.1548 18.9151 53.6113 17.9503 54.1438 17.0109C28.6316 23.4344 9.68756 46.564 9.68756 74.1114C9.68756 106.61 36.0113 132.964 68.4723 132.964C100.933 132.964 127.257 106.61 127.257 74.1114C127.282 54.8155 117.975 37.6778 103.647 26.9381ZM68.4976 104.325C51.836 104.325 38.3191 90.7922 38.3191 74.1114C38.3191 57.4306 51.836 43.8981 68.4976 43.8981C85.1592 43.8981 98.6761 57.4306 98.6761 74.1114C98.6508 90.7922 85.1592 104.325 68.4976 104.325Z" fill="white"/>
</mask>
<g mask="url(#mask0_1_176)">
<path d="M91.3217 132.38C104.263 132.38 114.754 121.877 114.754 108.92C114.754 95.9637 104.263 85.4604 91.3217 85.4604C78.3802 85.4604 67.889 95.9637 67.889 108.92C67.889 121.877 78.3802 132.38 91.3217 132.38Z" fill="#01A2FD"/>
</g>
<mask id="mask1_1_176" style="mask-type:luminance" maskUnits="userSpaceOnUse" x="9" y="17" width="119" height="116">
<path d="M103.647 26.9381C103.266 28.2837 102.632 29.5786 101.719 30.6703C99.792 32.9807 96.9263 34.2502 94.0606 35.215C93.7309 35.3166 93.3759 35.4435 93.1223 35.6974C92.7672 36.0782 92.7165 36.6622 92.6912 37.1954C92.5644 38.9472 92.0318 40.6991 90.9413 42.0955C89.8508 43.4665 88.1517 44.4059 86.4019 44.3044C85.6157 44.2536 84.8295 43.9997 84.0687 43.7712C78.7177 42.1717 73.1385 41.5369 67.5847 41.0799C64.2371 40.8006 60.7882 40.5721 57.6942 39.2265C54.9046 38.0332 51.4049 35.1642 51.6585 31.8128C51.9375 27.8775 51.5317 23.7898 52.7997 19.956C53.1548 18.9151 53.6113 17.9503 54.1438 17.0109C28.6316 23.4344 9.68756 46.564 9.68756 74.1114C9.68756 106.61 36.0113 132.964 68.4723 132.964C100.933 132.964 127.257 106.61 127.257 74.1114C127.282 54.8155 117.975 37.6778 103.647 26.9381ZM68.4976 104.325C51.836 104.325 38.3191 90.7922 38.3191 74.1114C38.3191 57.4306 51.836 43.8981 68.4976 43.8981C85.1592 43.8981 98.6761 57.4306 98.6761 74.1114C98.6508 90.7922 85.1592 104.325 68.4976 104.325Z" fill="white"/>
</mask>
<g mask="url(#mask1_1_176)">
<path d="M24.1935 75.9902C29.4878 75.9902 33.7797 71.6934 33.7797 66.3931C33.7797 61.0927 29.4878 56.7959 24.1935 56.7959C18.8993 56.7959 14.6074 61.0927 14.6074 66.3931C14.6074 71.6934 18.8993 75.9902 24.1935 75.9902Z" fill="#F97707"/>
</g>
<mask id="mask2_1_176" style="mask-type:luminance" maskUnits="userSpaceOnUse" x="9" y="17" width="119" height="116">
<path d="M103.647 26.9381C103.266 28.2837 102.632 29.5786 101.719 30.6703C99.792 32.9807 96.9263 34.2502 94.0606 35.215C93.7309 35.3166 93.3759 35.4435 93.1223 35.6974C92.7672 36.0782 92.7165 36.6622 92.6912 37.1954C92.5644 38.9472 92.0318 40.6991 90.9413 42.0955C89.8508 43.4665 88.1517 44.4059 86.4019 44.3044C85.6157 44.2536 84.8295 43.9997 84.0687 43.7712C78.7177 42.1717 73.1385 41.5369 67.5847 41.0799C64.2371 40.8006 60.7882 40.5721 57.6942 39.2265C54.9046 38.0332 51.4049 35.1642 51.6585 31.8128C51.9375 27.8775 51.5317 23.7898 52.7997 19.956C53.1548 18.9151 53.6113 17.9503 54.1438 17.0109C28.6316 23.4344 9.68756 46.564 9.68756 74.1114C9.68756 106.61 36.0113 132.964 68.4723 132.964C100.933 132.964 127.257 106.61 127.257 74.1114C127.282 54.8155 117.975 37.6778 103.647 26.9381ZM68.4976 104.325C51.836 104.325 38.3191 90.7922 38.3191 74.1114C38.3191 57.4306 51.836 43.8981 68.4976 43.8981C85.1592 43.8981 98.6761 57.4306 98.6761 74.1114C98.6508 90.7922 85.1592 104.325 68.4976 104.325Z" fill="white"/>
</mask>
<g mask="url(#mask2_1_176)">
<path d="M41.7173 107.727C51.3255 107.727 59.1144 99.9289 59.1144 90.3098C59.1144 80.6906 51.3255 72.8927 41.7173 72.8927C32.1092 72.8927 24.3203 80.6906 24.3203 90.3098C24.3203 99.9289 32.1092 107.727 41.7173 107.727Z" fill="#01A2FD"/>
</g>
<mask id="mask3_1_176" style="mask-type:luminance" maskUnits="userSpaceOnUse" x="9" y="17" width="119" height="116">
<path d="M103.647 26.9381C103.266 28.2837 102.632 29.5786 101.719 30.6703C99.792 32.9807 96.9263 34.2502 94.0606 35.215C93.7309 35.3166 93.3759 35.4435 93.1223 35.6974C92.7672 36.0782 92.7165 36.6622 92.6912 37.1954C92.5644 38.9472 92.0318 40.6991 90.9413 42.0955C89.8508 43.4665 88.1517 44.4059 86.4019 44.3044C85.6157 44.2536 84.8295 43.9997 84.0687 43.7712C78.7177 42.1717 73.1385 41.5369 67.5847 41.0799C64.2371 40.8006 60.7882 40.5721 57.6942 39.2265C54.9046 38.0332 51.4049 35.1642 51.6585 31.8128C51.9375 27.8775 51.5317 23.7898 52.7997 19.956C53.1548 18.9151 53.6113 17.9503 54.1438 17.0109C28.6316 23.4344 9.68756 46.564 9.68756 74.1114C9.68756 106.61 36.0113 132.964 68.4723 132.964C100.933 132.964 127.257 106.61 127.257 74.1114C127.282 54.8155 117.975 37.6778 103.647 26.9381ZM68.4976 104.325C51.836 104.325 38.3191 90.7922 38.3191 74.1114C38.3191 57.4306 51.836 43.8981 68.4976 43.8981C85.1592 43.8981 98.6761 57.4306 98.6761 74.1114C98.6508 90.7922 85.1592 104.325 68.4976 104.325Z" fill="white"/>
</mask>
<g mask="url(#mask3_1_176)">
<path d="M17.397 70.0745C27.0051 70.0745 34.7941 62.2766 34.7941 52.6574C34.7941 43.0382 27.0051 35.2404 17.397 35.2404C7.78891 35.2404 0 43.0382 0 52.6574C0 62.2766 7.78891 70.0745 17.397 70.0745Z" fill="#014DAF"/>
</g>
<mask id="mask4_1_176" style="mask-type:luminance" maskUnits="userSpaceOnUse" x="9" y="17" width="119" height="116">
<path d="M103.647 26.9381C103.266 28.2837 102.632 29.5786 101.719 30.6703C99.792 32.9807 96.9263 34.2502 94.0606 35.215C93.7309 35.3166 93.3759 35.4435 93.1223 35.6974C92.7672 36.0782 92.7165 36.6622 92.6912 37.1954C92.5644 38.9472 92.0318 40.6991 90.9413 42.0955C89.8508 43.4665 88.1517 44.4059 86.4019 44.3044C85.6157 44.2536 84.8295 43.9997 84.0687 43.7712C78.7177 42.1717 73.1385 41.5369 67.5847 41.0799C64.2371 40.8006 60.7882 40.5721 57.6942 39.2265C54.9046 38.0332 51.4049 35.1642 51.6585 31.8128C51.9375 27.8775 51.5317 23.7898 52.7997 19.956C53.1548 18.9151 53.6113 17.9503 54.1438 17.0109C28.6316 23.4344 9.68756 46.564 9.68756 74.1114C9.68756 106.61 36.0113 132.964 68.4723 132.964C100.933 132.964 127.257 106.61 127.257 74.1114C127.282 54.8155 117.975 37.6778 103.647 26.9381ZM68.4976 104.325C51.836 104.325 38.3191 90.7922 38.3191 74.1114C38.3191 57.4306 51.836 43.8981 68.4976 43.8981C85.1592 43.8981 98.6761 57.4306 98.6761 74.1114C98.6508 90.7922 85.1592 104.325 68.4976 104.325Z" fill="white"/>
</mask>
<g mask="url(#mask4_1_176)">
<path d="M50.213 55.298C58.0564 55.298 64.4147 48.9323 64.4147 41.0799C64.4147 33.2276 58.0564 26.8619 50.213 26.8619C42.3696 26.8619 36.0114 33.2276 36.0114 41.0799C36.0114 48.9323 42.3696 55.298 50.213 55.298Z" fill="#F97707"/>
</g>
<mask id="mask5_1_176" style="mask-type:luminance" maskUnits="userSpaceOnUse" x="9" y="17" width="119" height="116">
<path d="M103.647 26.9381C103.266 28.2837 102.632 29.5786 101.719 30.6703C99.792 32.9807 96.9263 34.2502 94.0606 35.215C93.7309 35.3166 93.3759 35.4435 93.1223 35.6974C92.7672 36.0782 92.7165 36.6622 92.6912 37.1954C92.5644 38.9472 92.0318 40.6991 90.9413 42.0955C89.8508 43.4665 88.1517 44.4059 86.4019 44.3044C85.6157 44.2536 84.8295 43.9997 84.0687 43.7712C78.7177 42.1717 73.1385 41.5369 67.5847 41.0799C64.2371 40.8006 60.7882 40.5721 57.6942 39.2265C54.9046 38.0332 51.4049 35.1642 51.6585 31.8128C51.9375 27.8775 51.5317 23.7898 52.7997 19.956C53.1548 18.9151 53.6113 17.9503 54.1438 17.0109C28.6316 23.4344 9.68756 46.564 9.68756 74.1114C9.68756 106.61 36.0113 132.964 68.4723 132.964C100.933 132.964 127.257 106.61 127.257 74.1114C127.282 54.8155 117.975 37.6778 103.647 26.9381ZM68.4976 104.325C51.836 104.325 38.3191 90.7922 38.3191 74.1114C38.3191 57.4306 51.836 43.8981 68.4976 43.8981C85.1592 43.8981 98.6761 57.4306 98.6761 74.1114C98.6508 90.7922 85.1592 104.325 68.4976 104.325Z" fill="white"/>
</mask>
<g mask="url(#mask5_1_176)">
<path d="M45.4707 35.6466C53.244 35.6466 59.5455 29.3378 59.5455 21.5555C59.5455 13.7733 53.244 7.46448 45.4707 7.46448C37.6973 7.46448 31.3958 13.7733 31.3958 21.5555C31.3958 29.3378 37.6973 35.6466 45.4707 35.6466Z" fill="#01A2FD"/>
</g>
<mask id="mask6_1_176" style="mask-type:luminance" maskUnits="userSpaceOnUse" x="9" y="17" width="119" height="116">
<path d="M103.647 26.9381C103.266 28.2837 102.632 29.5786 101.719 30.6703C99.792 32.9807 96.9263 34.2502 94.0606 35.215C93.7309 35.3166 93.3759 35.4435 93.1223 35.6974C92.7672 36.0782 92.7165 36.6622 92.6912 37.1954C92.5644 38.9472 92.0318 40.6991 90.9413 42.0955C89.8508 43.4665 88.1517 44.4059 86.4019 44.3044C85.6157 44.2536 84.8295 43.9997 84.0687 43.7712C78.7177 42.1717 73.1385 41.5369 67.5847 41.0799C64.2371 40.8006 60.7882 40.5721 57.6942 39.2265C54.9046 38.0332 51.4049 35.1642 51.6585 31.8128C51.9375 27.8775 51.5317 23.7898 52.7997 19.956C53.1548 18.9151 53.6113 17.9503 54.1438 17.0109C28.6316 23.4344 9.68756 46.564 9.68756 74.1114C9.68756 106.61 36.0113 132.964 68.4723 132.964C100.933 132.964 127.257 106.61 127.257 74.1114C127.282 54.8155 117.975 37.6778 103.647 26.9381ZM68.4976 104.325C51.836 104.325 38.3191 90.7922 38.3191 74.1114C38.3191 57.4306 51.836 43.8981 68.4976 43.8981C85.1592 43.8981 98.6761 57.4306 98.6761 74.1114C98.6508 90.7922 85.1592 104.325 68.4976 104.325Z" fill="white"/>
</mask>
<g mask="url(#mask6_1_176)">
<path d="M113.892 63.6002C121.736 63.6002 128.094 57.2346 128.094 49.3822C128.094 41.5298 121.736 35.1642 113.892 35.1642C106.049 35.1642 99.6906 41.5298 99.6906 49.3822C99.6906 57.2346 106.049 63.6002 113.892 63.6002Z" fill="#F97707"/>
</g>
<mask id="mask7_1_176" style="mask-type:luminance" maskUnits="userSpaceOnUse" x="9" y="17" width="119" height="116">
<path d="M103.647 26.9381C103.266 28.2837 102.632 29.5786 101.719 30.6703C99.792 32.9807 96.9263 34.2502 94.0606 35.215C93.7309 35.3166 93.3759 35.4435 93.1223 35.6974C92.7672 36.0782 92.7165 36.6622 92.6912 37.1954C92.5644 38.9472 92.0318 40.6991 90.9413 42.0955C89.8508 43.4665 88.1517 44.4059 86.4019 44.3044C85.6157 44.2536 84.8295 43.9997 84.0687 43.7712C78.7177 42.1717 73.1385 41.5369 67.5847 41.0799C64.2371 40.8006 60.7882 40.5721 57.6942 39.2265C54.9046 38.0332 51.4049 35.1642 51.6585 31.8128C51.9375 27.8775 51.5317 23.7898 52.7997 19.956C53.1548 18.9151 53.6113 17.9503 54.1438 17.0109C28.6316 23.4344 9.68756 46.564 9.68756 74.1114C9.68756 106.61 36.0113 132.964 68.4723 132.964C100.933 132.964 127.257 106.61 127.257 74.1114C127.282 54.8155 117.975 37.6778 103.647 26.9381ZM68.4976 104.325C51.836 104.325 38.3191 90.7922 38.3191 74.1114C38.3191 57.4306 51.836 43.8981 68.4976 43.8981C85.1592 43.8981 98.6761 57.4306 98.6761 74.1114C98.6508 90.7922 85.1592 104.325 68.4976 104.325Z" fill="white"/>
</mask>
<g mask="url(#mask7_1_176)">
<path d="M111.027 72.5118C116.223 72.5118 120.435 68.2946 120.435 63.0924C120.435 57.8902 116.223 53.673 111.027 53.673C105.83 53.673 101.618 57.8902 101.618 63.0924C101.618 68.2946 105.83 72.5118 111.027 72.5118Z" fill="#01A2FD"/>
</g>
<mask id="mask8_1_176" style="mask-type:luminance" maskUnits="userSpaceOnUse" x="9" y="17" width="119" height="116">
<path d="M103.647 26.9381C103.266 28.2837 102.632 29.5786 101.719 30.6703C99.792 32.9807 96.9263 34.2502 94.0606 35.215C93.7309 35.3166 93.3759 35.4435 93.1223 35.6974C92.7672 36.0782 92.7165 36.6622 92.6912 37.1954C92.5644 38.9472 92.0318 40.6991 90.9413 42.0955C89.8508 43.4665 88.1517 44.4059 86.4019 44.3044C85.6157 44.2536 84.8295 43.9997 84.0687 43.7712C78.7177 42.1717 73.1385 41.5369 67.5847 41.0799C64.2371 40.8006 60.7882 40.5721 57.6942 39.2265C54.9046 38.0332 51.4049 35.1642 51.6585 31.8128C51.9375 27.8775 51.5317 23.7898 52.7997 19.956C53.1548 18.9151 53.6113 17.9503 54.1438 17.0109C28.6316 23.4344 9.68756 46.564 9.68756 74.1114C9.68756 106.61 36.0113 132.964 68.4723 132.964C100.933 132.964 127.257 106.61 127.257 74.1114C127.282 54.8155 117.975 37.6778 103.647 26.9381ZM68.4976 104.325C51.836 104.325 38.3191 90.7922 38.3191 74.1114C38.3191 57.4306 51.836 43.8981 68.4976 43.8981C85.1592 43.8981 98.6761 57.4306 98.6761 74.1114C98.6508 90.7922 85.1592 104.325 68.4976 104.325Z" fill="white"/>
</mask>
<g mask="url(#mask8_1_176)">
<path d="M86.0215 50.4232C91.2177 50.4232 95.43 46.206 95.43 41.0038C95.43 35.8016 91.2177 31.5844 86.0215 31.5844C80.8252 31.5844 76.6129 35.8016 76.6129 41.0038C76.6129 46.206 80.8252 50.4232 86.0215 50.4232Z" fill="#014DAF"/>
</g>
<mask id="mask9_1_176" style="mask-type:luminance" maskUnits="userSpaceOnUse" x="9" y="17" width="119" height="116">
<path d="M103.647 26.9381C103.266 28.2837 102.632 29.5786 101.719 30.6703C99.792 32.9807 96.9263 34.2502 94.0606 35.215C93.7309 35.3166 93.3759 35.4435 93.1223 35.6974C92.7672 36.0782 92.7165 36.6622 92.6912 37.1954C92.5644 38.9472 92.0318 40.6991 90.9413 42.0955C89.8508 43.4665 88.1517 44.4059 86.4019 44.3044C85.6157 44.2536 84.8295 43.9997 84.0687 43.7712C78.7177 42.1717 73.1385 41.5369 67.5847 41.0799C64.2371 40.8006 60.7882 40.5721 57.6942 39.2265C54.9046 38.0332 51.4049 35.1642 51.6585 31.8128C51.9375 27.8775 51.5317 23.7898 52.7997 19.956C53.1548 18.9151 53.6113 17.9503 54.1438 17.0109C28.6316 23.4344 9.68756 46.564 9.68756 74.1114C9.68756 106.61 36.0113 132.964 68.4723 132.964C100.933 132.964 127.257 106.61 127.257 74.1114C127.282 54.8155 117.975 37.6778 103.647 26.9381ZM68.4976 104.325C51.836 104.325 38.3191 90.7922 38.3191 74.1114C38.3191 57.4306 51.836 43.8981 68.4976 43.8981C85.1592 43.8981 98.6761 57.4306 98.6761 74.1114C98.6508 90.7922 85.1592 104.325 68.4976 104.325Z" fill="white"/>
</mask>
<g mask="url(#mask9_1_176)">
<path d="M69.6135 29.7055C73.3251 29.7055 76.3339 26.6932 76.3339 22.9773C76.3339 19.2614 73.3251 16.2491 69.6135 16.2491C65.9019 16.2491 62.8931 19.2614 62.8931 22.9773C62.8931 26.6932 65.9019 29.7055 69.6135 29.7055Z" fill="#014DAF"/>
</g>
<mask id="mask10_1_176" style="mask-type:luminance" maskUnits="userSpaceOnUse" x="9" y="17" width="119" height="116">
<path d="M103.647 26.9381C103.266 28.2837 102.632 29.5786 101.719 30.6703C99.792 32.9807 96.9263 34.2502 94.0606 35.215C93.7309 35.3166 93.3759 35.4435 93.1223 35.6974C92.7672 36.0782 92.7165 36.6622 92.6912 37.1954C92.5644 38.9472 92.0318 40.6991 90.9413 42.0955C89.8508 43.4665 88.1517 44.4059 86.4019 44.3044C85.6157 44.2536 84.8295 43.9997 84.0687 43.7712C78.7177 42.1717 73.1385 41.5369 67.5847 41.0799C64.2371 40.8006 60.7882 40.5721 57.6942 39.2265C54.9046 38.0332 51.4049 35.1642 51.6585 31.8128C51.9375 27.8775 51.5317 23.7898 52.7997 19.956C53.1548 18.9151 53.6113 17.9503 54.1438 17.0109C28.6316 23.4344 9.68756 46.564 9.68756 74.1114C9.68756 106.61 36.0113 132.964 68.4723 132.964C100.933 132.964 127.257 106.61 127.257 74.1114C127.282 54.8155 117.975 37.6778 103.647 26.9381ZM68.4976 104.325C51.836 104.325 38.3191 90.7922 38.3191 74.1114C38.3191 57.4306 51.836 43.8981 68.4976 43.8981C85.1592 43.8981 98.6761 57.4306 98.6761 74.1114C98.6508 90.7922 85.1592 104.325 68.4976 104.325Z" fill="white"/>
</mask>
<g mask="url(#mask10_1_176)">
<path d="M48.311 132.761C56.1543 132.761 62.5126 126.395 62.5126 118.543C62.5126 110.69 56.1543 104.325 48.311 104.325C40.4676 104.325 34.1093 110.69 34.1093 118.543C34.1093 126.395 40.4676 132.761 48.311 132.761Z" fill="#F97707"/>
</g>
<mask id="mask11_1_176" style="mask-type:luminance" maskUnits="userSpaceOnUse" x="9" y="17" width="119" height="116">
<path d="M103.647 26.9381C103.266 28.2837 102.632 29.5786 101.719 30.6703C99.792 32.9807 96.9263 34.2502 94.0606 35.215C93.7309 35.3166 93.3759 35.4435 93.1223 35.6974C92.7672 36.0782 92.7165 36.6622 92.6912 37.1954C92.5644 38.9472 92.0318 40.6991 90.9413 42.0955C89.8508 43.4665 88.1517 44.4059 86.4019 44.3044C85.6157 44.2536 84.8295 43.9997 84.0687 43.7712C78.7177 42.1717 73.1385 41.5369 67.5847 41.0799C64.2371 40.8006 60.7882 40.5721 57.6942 39.2265C54.9046 38.0332 51.4049 35.1642 51.6585 31.8128C51.9375 27.8775 51.5317 23.7898 52.7997 19.956C53.1548 18.9151 53.6113 17.9503 54.1438 17.0109C28.6316 23.4344 9.68756 46.564 9.68756 74.1114C9.68756 106.61 36.0113 132.964 68.4723 132.964C100.933 132.964 127.257 106.61 127.257 74.1114C127.282 54.8155 117.975 37.6778 103.647 26.9381ZM68.4976 104.325C51.836 104.325 38.3191 90.7922 38.3191 74.1114C38.3191 57.4306 51.836 43.8981 68.4976 43.8981C85.1592 43.8981 98.6761 57.4306 98.6761 74.1114C98.6508 90.7922 85.1592 104.325 68.4976 104.325Z" fill="white"/>
</mask>
<g mask="url(#mask11_1_176)">
<path d="M16.0023 103.106C21.8007 103.106 26.5013 98.4 26.5013 92.5948C26.5013 86.7896 21.8007 82.0836 16.0023 82.0836C10.2038 82.0836 5.50317 86.7896 5.50317 92.5948C5.50317 98.4 10.2038 103.106 16.0023 103.106Z" fill="#014DAF"/>
</g>
<mask id="mask12_1_176" style="mask-type:luminance" maskUnits="userSpaceOnUse" x="9" y="17" width="119" height="116">
<path d="M103.647 26.9381C103.266 28.2837 102.632 29.5786 101.719 30.6703C99.792 32.9807 96.9263 34.2502 94.0606 35.215C93.7309 35.3166 93.3759 35.4435 93.1223 35.6974C92.7672 36.0782 92.7165 36.6622 92.6912 37.1954C92.5644 38.9472 92.0318 40.6991 90.9413 42.0955C89.8508 43.4665 88.1517 44.4059 86.4019 44.3044C85.6157 44.2536 84.8295 43.9997 84.0687 43.7712C78.7177 42.1717 73.1385 41.5369 67.5847 41.0799C64.2371 40.8006 60.7882 40.5721 57.6942 39.2265C54.9046 38.0332 51.4049 35.1642 51.6585 31.8128C51.9375 27.8775 51.5317 23.7898 52.7997 19.956C53.1548 18.9151 53.6113 17.9503 54.1438 17.0109C28.6316 23.4344 9.68756 46.564 9.68756 74.1114C9.68756 106.61 36.0113 132.964 68.4723 132.964C100.933 132.964 127.257 106.61 127.257 74.1114C127.282 54.8155 117.975 37.6778 103.647 26.9381ZM68.4976 104.325C51.836 104.325 38.3191 90.7922 38.3191 74.1114C38.3191 57.4306 51.836 43.8981 68.4976 43.8981C85.1592 43.8981 98.6761 57.4306 98.6761 74.1114C98.6508 90.7922 85.1592 104.325 68.4976 104.325Z" fill="white"/>
</mask>
<g mask="url(#mask12_1_176)">
<path d="M71.1858 142.536C81.7603 142.536 90.3327 133.953 90.3327 123.367C90.3327 112.78 81.7603 104.198 71.1858 104.198C60.6113 104.198 52.0389 112.78 52.0389 123.367C52.0389 133.953 60.6113 142.536 71.1858 142.536Z" fill="#014DAF"/>
</g>
<mask id="mask13_1_176" style="mask-type:luminance" maskUnits="userSpaceOnUse" x="9" y="17" width="119" height="116">
<path d="M103.647 26.9381C103.266 28.2837 102.632 29.5786 101.719 30.6703C99.792 32.9807 96.9263 34.2502 94.0606 35.215C93.7309 35.3166 93.3759 35.4435 93.1223 35.6974C92.7672 36.0782 92.7165 36.6622 92.6912 37.1954C92.5644 38.9472 92.0318 40.6991 90.9413 42.0955C89.8508 43.4665 88.1517 44.4059 86.4019 44.3044C85.6157 44.2536 84.8295 43.9997 84.0687 43.7712C78.7177 42.1717 73.1385 41.5369 67.5847 41.0799C64.2371 40.8006 60.7882 40.5721 57.6942 39.2265C54.9046 38.0332 51.4049 35.1642 51.6585 31.8128C51.9375 27.8775 51.5317 23.7898 52.7997 19.956C53.1548 18.9151 53.6113 17.9503 54.1438 17.0109C28.6316 23.4344 9.68756 46.564 9.68756 74.1114C9.68756 106.61 36.0113 132.964 68.4723 132.964C100.933 132.964 127.257 106.61 127.257 74.1114C127.282 54.8155 117.975 37.6778 103.647 26.9381ZM68.4976 104.325C51.836 104.325 38.3191 90.7922 38.3191 74.1114C38.3191 57.4306 51.836 43.8981 68.4976 43.8981C85.1592 43.8981 98.6761 57.4306 98.6761 74.1114C98.6508 90.7922 85.1592 104.325 68.4976 104.325Z" fill="white"/>
</mask>
<g mask="url(#mask13_1_176)">
<path d="M108.237 103.309C113.531 103.309 117.823 99.0123 117.823 93.7119C117.823 88.4115 113.531 84.1147 108.237 84.1147C102.943 84.1147 98.6508 88.4115 98.6508 93.7119C98.6508 99.0123 102.943 103.309 108.237 103.309Z" fill="#014DAF"/>
</g>
<mask id="mask14_1_176" style="mask-type:luminance" maskUnits="userSpaceOnUse" x="9" y="17" width="119" height="116">
<path d="M103.647 26.9381C103.266 28.2837 102.632 29.5786 101.719 30.6703C99.792 32.9807 96.9263 34.2502 94.0606 35.215C93.7309 35.3166 93.3759 35.4435 93.1223 35.6974C92.7672 36.0782 92.7165 36.6622 92.6912 37.1954C92.5644 38.9472 92.0318 40.6991 90.9413 42.0955C89.8508 43.4665 88.1517 44.4059 86.4019 44.3044C85.6157 44.2536 84.8295 43.9997 84.0687 43.7712C78.7177 42.1717 73.1385 41.5369 67.5847 41.0799C64.2371 40.8006 60.7882 40.5721 57.6942 39.2265C54.9046 38.0332 51.4049 35.1642 51.6585 31.8128C51.9375 27.8775 51.5317 23.7898 52.7997 19.956C53.1548 18.9151 53.6113 17.9503 54.1438 17.0109C28.6316 23.4344 9.68756 46.564 9.68756 74.1114C9.68756 106.61 36.0113 132.964 68.4723 132.964C100.933 132.964 127.257 106.61 127.257 74.1114C127.282 54.8155 117.975 37.6778 103.647 26.9381ZM68.4976 104.325C51.836 104.325 38.3191 90.7922 38.3191 74.1114C38.3191 57.4306 51.836 43.8981 68.4976 43.8981C85.1592 43.8981 98.6761 57.4306 98.6761 74.1114C98.6508 90.7922 85.1592 104.325 68.4976 104.325Z" fill="white"/>
</mask>
<g mask="url(#mask14_1_176)">
<path d="M130.782 88.5326C136.076 88.5326 140.368 84.2358 140.368 78.9354C140.368 73.635 136.076 69.3383 130.782 69.3383C125.488 69.3383 121.196 73.635 121.196 78.9354C121.196 84.2358 125.488 88.5326 130.782 88.5326Z" fill="#F97707"/>
</g>
<path d="M86.8076 24.196C89.6509 24.196 91.9557 21.8885 91.9557 19.042C91.9557 16.1955 89.6509 13.8879 86.8076 13.8879C83.9644 13.8879 81.6595 16.1955 81.6595 19.042C81.6595 21.8885 83.9644 24.196 86.8076 24.196Z" fill="#F97707"/>
<path d="M75.1673 15.8937C76.8621 15.8937 78.2359 14.5183 78.2359 12.8216C78.2359 11.1249 76.8621 9.74951 75.1673 9.74951C73.4726 9.74951 72.0988 11.1249 72.0988 12.8216C72.0988 14.5183 73.4726 15.8937 75.1673 15.8937Z" fill="#FEC401"/>
<path d="M99.5638 35.3165C102.407 35.3165 104.712 33.0089 104.712 30.1625C104.712 27.316 102.407 25.0084 99.5638 25.0084C96.7205 25.0084 94.4156 27.316 94.4156 30.1625C94.4156 33.0089 96.7205 35.3165 99.5638 35.3165Z" fill="#014DAF"/>
<mask id="mask15_1_176" style="mask-type:luminance" maskUnits="userSpaceOnUse" x="9" y="15" width="119" height="118">
<path d="M68.4976 15.259C36.0367 15.259 9.71289 41.6131 9.71289 74.1114C9.71289 106.61 36.0113 132.964 68.4976 132.964C100.984 132.964 127.282 106.61 127.282 74.1114C127.282 41.6131 100.959 15.259 68.4976 15.259ZM68.4976 104.325C51.836 104.325 38.3191 90.7922 38.3191 74.1114C38.3191 57.4307 51.836 43.8982 68.4976 43.8982C85.1592 43.8982 98.6761 57.4307 98.6761 74.1114C98.6761 90.7922 85.1592 104.325 68.4976 104.325Z" fill="white"/>
</mask>
<g mask="url(#mask15_1_176)">
<path d="M70.8307 52.2004C75.3967 52.2004 79.0981 48.4947 79.0981 43.9235C79.0981 39.3523 75.3967 35.6466 70.8307 35.6466C66.2648 35.6466 62.5634 39.3523 62.5634 43.9235C62.5634 48.4947 66.2648 52.2004 70.8307 52.2004Z" fill="#FEC401"/>
</g>
<mask id="mask16_1_176" style="mask-type:luminance" maskUnits="userSpaceOnUse" x="9" y="15" width="119" height="118">
<path d="M68.4976 15.259C36.0367 15.259 9.71289 41.6131 9.71289 74.1114C9.71289 106.61 36.0113 132.964 68.4976 132.964C100.984 132.964 127.282 106.61 127.282 74.1114C127.282 41.6131 100.959 15.259 68.4976 15.259ZM68.4976 104.325C51.836 104.325 38.3191 90.7922 38.3191 74.1114C38.3191 57.4307 51.836 43.8982 68.4976 43.8982C85.1592 43.8982 98.6761 57.4307 98.6761 74.1114C98.6761 90.7922 85.1592 104.325 68.4976 104.325Z" fill="white"/>
</mask>
<g mask="url(#mask16_1_176)">
<path d="M87.6698 54.1809C93.5664 54.1809 98.3464 49.3953 98.3464 43.492C98.3464 37.5887 93.5664 32.8031 87.6698 32.8031C81.7733 32.8031 76.9932 37.5887 76.9932 43.492C76.9932 49.3953 81.7733 54.1809 87.6698 54.1809Z" fill="#01A2FD"/>
</g>
<mask id="mask17_1_176" style="mask-type:luminance" maskUnits="userSpaceOnUse" x="9" y="15" width="119" height="118">
<path d="M68.4976 15.259C36.0367 15.259 9.71289 41.6131 9.71289 74.1114C9.71289 106.61 36.0113 132.964 68.4976 132.964C100.984 132.964 127.282 106.61 127.282 74.1114C127.282 41.6131 100.959 15.259 68.4976 15.259ZM68.4976 104.325C51.836 104.325 38.3191 90.7922 38.3191 74.1114C38.3191 57.4307 51.836 43.8982 68.4976 43.8982C85.1592 43.8982 98.6761 57.4307 98.6761 74.1114C98.6761 90.7922 85.1592 104.325 68.4976 104.325Z" fill="white"/>
</mask>
<g mask="url(#mask17_1_176)">
<path d="M83.4093 38.3887C86.2525 38.3887 88.5574 36.0812 88.5574 33.2347C88.5574 30.3882 86.2525 28.0807 83.4093 28.0807C80.5661 28.0807 78.2612 30.3882 78.2612 33.2347C78.2612 36.0812 80.5661 38.3887 83.4093 38.3887Z" fill="#FEC401"/>
</g>
<mask id="mask18_1_176" style="mask-type:luminance" maskUnits="userSpaceOnUse" x="9" y="15" width="119" height="118">
<path d="M68.4976 15.259C36.0367 15.259 9.71289 41.6131 9.71289 74.1114C9.71289 106.61 36.0113 132.964 68.4976 132.964C100.984 132.964 127.282 106.61 127.282 74.1114C127.282 41.6131 100.959 15.259 68.4976 15.259ZM68.4976 104.325C51.836 104.325 38.3191 90.7922 38.3191 74.1114C38.3191 57.4307 51.836 43.8982 68.4976 43.8982C85.1592 43.8982 98.6761 57.4307 98.6761 74.1114C98.6761 90.7922 85.1592 104.325 68.4976 104.325Z" fill="white"/>
</mask>
<g mask="url(#mask18_1_176)">
<path d="M70.2221 32.2952C73.8776 32.2952 76.8411 29.3284 76.8411 25.6686C76.8411 22.0088 73.8776 19.042 70.2221 19.042C66.5665 19.042 63.6031 22.0088 63.6031 25.6686C63.6031 29.3284 66.5665 32.2952 70.2221 32.2952Z" fill="#014DAF"/>
</g>
<mask id="mask19_1_176" style="mask-type:luminance" maskUnits="userSpaceOnUse" x="9" y="15" width="119" height="118">
<path d="M68.4976 15.259C36.0367 15.259 9.71289 41.6131 9.71289 74.1114C9.71289 106.61 36.0113 132.964 68.4976 132.964C100.984 132.964 127.282 106.61 127.282 74.1114C127.282 41.6131 100.959 15.259 68.4976 15.259ZM68.4976 104.325C51.836 104.325 38.3191 90.7922 38.3191 74.1114C38.3191 57.4307 51.836 43.8982 68.4976 43.8982C85.1592 43.8982 98.6761 57.4307 98.6761 74.1114C98.6761 90.7922 85.1592 104.325 68.4976 104.325Z" fill="white"/>
</mask>
<g mask="url(#mask19_1_176)">
<path d="M50.0862 55.5519C57.9295 55.5519 64.2878 49.1862 64.2878 41.3339C64.2878 33.4815 57.9295 27.1158 50.0862 27.1158C42.2428 27.1158 35.8845 33.4815 35.8845 41.3339C35.8845 49.1862 42.2428 55.5519 50.0862 55.5519Z" fill="#F97707"/>
</g>
<mask id="mask20_1_176" style="mask-type:luminance" maskUnits="userSpaceOnUse" x="9" y="15" width="119" height="118">
<path d="M68.4976 15.259C36.0367 15.259 9.71289 41.6131 9.71289 74.1114C9.71289 106.61 36.0113 132.964 68.4976 132.964C100.984 132.964 127.282 106.61 127.282 74.1114C127.282 41.6131 100.959 15.259 68.4976 15.259ZM68.4976 104.325C51.836 104.325 38.3191 90.7922 38.3191 74.1114C38.3191 57.4307 51.836 43.8982 68.4976 43.8982C85.1592 43.8982 98.6761 57.4307 98.6761 74.1114C98.6761 90.7922 85.1592 104.325 68.4976 104.325Z" fill="white"/>
</mask>
<g mask="url(#mask20_1_176)">
<path d="M45.3692 35.9005C53.1425 35.9005 59.444 29.5917 59.444 21.8094C59.444 14.0272 53.1425 7.71838 45.3692 7.71838C37.5958 7.71838 31.2943 14.0272 31.2943 21.8094C31.2943 29.5917 37.5958 35.9005 45.3692 35.9005Z" fill="#01A2FD"/>
</g>
</svg>
